PathFileType	4	(X/Y/Z)	Patient4_TMGait_0pt7_02_left_05.trc.trc
DataRate	CameraRate	NumFrames	NumMarkers	Units	OrigDataRate	OrigDataStartFrame	OrigNumFrames
89.171974522293	89.171974522293	6	33	mm	89.171974522293	18	       141
Frame#	Time	Sacral			L.Shoulder			Chest			R.Shoulder			Neck			R.ASIS			L.ASIS			R.Thigh.Superior			R.Thigh.Lateral			R.Thigh.Inferior			R.Patella			L.Thigh.Superior			L.Thigh.Lateral			L.Thigh.Inferior			L.Patella			L.Shank.Superior			L.Shank.Lateral			L.Shank.Inferior			R.Shank.Superior			R.Shank.Lateral			R.Shank.Inferior			R.Heel			R.Midfoot.Superior			R.Midfoot.Lateral			R.Toe			L.Heel			L.Midfoot.Lateral			L.Midfoot.Superior			L.Toe			L.Elbow			L.Wrist			R.Elbow			R.Wrist			
		X1	Y1	Z1	X2	Y2	Z2	X3	Y3	Z3	X4	Y4	Z4	X5	Y5	Z5	X6	Y6	Z6	X7	Y7	Z7	X8	Y8	Z8	X9	Y9	Z9	X10	Y10	Z10	X11	Y11	Z11	X12	Y12	Z12	X13	Y13	Z13	X14	Y14	Z14	X15	Y15	Z15	X16	Y16	Z16	X17	Y17	Z17	X18	Y18	Z18	X19	Y19	Z19	X20	Y20	Z20	X21	Y21	Z21	X22	Y22	Z22	X23	Y23	Z23	X24	Y24	Z24	X25	Y25	Z25	X26	Y26	Z26	X27	Y27	Z27	X28	Y28	Z28	X29	Y29	Z29	X30	Y30	Z30	X31	Y31	Z31	X32	Y32	Z32	X33	Y33	Z33	

18	5.530642857143	846.848998600657	1020.139830440913	504.064860468768	1038.711716369789	1428.111842596010	301.009776048910	1156.681591859541	1348.762754850925	446.833927431578	1106.293976662623	1435.578107686233	625.998942429718	1063.768160345542	1487.372803333720	453.644543207898	1071.657063514867	935.726245153992	603.908800205048	1044.010994027885	952.637166367849	329.812708828605	1062.031658415697	723.303322622604	577.783558866197	956.100808022061	633.359062653905	640.018172410384	1013.152840528219	566.331117781960	558.644566627258	995.352129986131	483.365063195037	562.398578048984	1120.310094510064	789.110501281107	367.420143402461	1091.747525953714	659.356376222285	280.681083995189	1194.718594997222	606.490532832301	348.412432614735	1228.150479523572	540.569398476237	342.527805320961	1210.903437776641	465.099480421830	331.380132177444	1147.291984303922	336.551017244864	272.807679236208	1230.316696246043	235.451737908240	330.314595862931	957.505586849666	400.961584316598	567.554659490071	878.256949611789	304.385518354593	629.841965450161	908.525092273827	206.778132690872	562.695063801340	760.193765631872	47.605585794459	533.752779539594	934.010517103743	96.999046292794	565.078550355511	845.135227655193	38.729497172533	604.978888480897	1053.256032443790	39.283592394423	590.126715479080	1145.999767242168	53.053068149326	358.296893034154	1226.384119680582	59.731598930577	284.845010529348	1292.883187174110	139.314561006443	311.793402961245	1429.479263138563	113.283479852958	297.420600728205	859.390480998830	1122.909957458220	219.256893674341	804.274906265249	867.589890441616	244.683841031586	1258.982087649414	1136.727054914556	728.385826653302	1441.202163513462	1237.488539106923	590.699884427521	
19	5.541857142857	848.097005163073	1018.697237883510	502.178903930736	1037.583798896203	1427.530449009969	299.913351035053	1156.102490114141	1348.575068297443	445.460307286587	1105.280496706790	1434.885490921891	624.607187805767	1062.236486327465	1486.485006377121	452.695615777580	1072.723018168306	934.738981409674	602.495553764204	1045.837286368286	951.276818924691	328.310465811560	1060.180598156111	721.697294081665	576.924200086053	952.763360089871	632.973317667704	639.296558972243	1008.931430792856	565.209744647652	558.137334457418	990.470606486424	482.220114024296	562.074186670458	1121.000222716084	786.010662767493	366.593375313553	1090.534381415306	656.017471408199	280.335178973503	1193.009250666614	602.421473510990	347.709547684445	1225.614054646444	536.849566471756	342.236019114334	1209.075010069296	461.613648328515	331.159233408116	1146.237700518999	332.171322472308	274.151427280077	1230.801158358609	232.309557119373	331.541944430269	951.725568331353	400.357350131242	567.274225064208	871.707224855851	304.438325211521	629.733105526221	901.289965953856	206.509143149263	562.650611081473	752.224158636552	47.691578386950	533.826399829922	926.019440033486	96.911249970787	565.074069669354	837.172898713603	38.737790703970	605.082519491121	1045.277698103635	39.241309221080	590.120962247074	1148.439625636195	49.877223290704	361.419397622623	1228.013066858440	56.628955028425	287.151737837386	1294.312645402179	136.439433532740	313.157149194209	1430.821590239946	110.940201767813	297.602047143513	857.103710356048	1123.504570051954	218.437704318730	802.044268693344	868.123808176965	244.450250417651	1263.128944069889	1138.781009435343	723.934245796313	1440.534138759155	1246.255701070501	585.684575708521	
20	5.553071428571	849.455301217070	1016.989947727048	500.043037257001	1036.504929456810	1426.699796381387	298.621769012697	1155.528587735110	1348.305844285938	444.026134326003	1104.017959861207	1434.063436983728	623.137902992396	1060.620000452126	1485.426536252461	451.563411682840	1073.910579954963	933.600272588215	601.069461997143	1047.939392048626	949.699543565469	326.830353169278	1058.900044869852	720.015978516748	576.037839998571	950.129418780752	632.387977432374	638.451458094914	1005.587319058637	563.955901709617	557.509874813019	986.429450419536	480.829994240413	561.564185680463	1122.094491426539	782.577193189007	365.634233653167	1089.297090927547	652.375056096993	280.154292873613	1191.445499341366	598.086911759230	346.993496778560	1222.993220688562	532.576938247762	341.967128608193	1206.828494079271	457.582887202687	330.958140428823	1143.972606446067	327.608419130217	275.727302505626	1229.631959147482	228.580340331264	332.867108991942	946.703023271392	399.501819622401	566.838453401032	865.755205678894	304.395876001120	629.517492710158	894.358108711278	206.101739344032	562.519919704684	744.273542175763	47.844507846524	533.928820023032	918.056335909465	96.827024214031	565.059269456021	829.235518879042	38.788725223466	605.226739853077	1037.317357551299	39.166377236356	590.127326978538	1148.116025780000	46.938984215919	364.790255453748	1226.701788624663	53.274896616501	289.488169925444	1293.503081049351	132.627067382624	314.521473832761	1429.626258679205	106.534161231926	297.367086686178	855.405441880775	1123.474213951487	217.375579328801	800.669918075429	867.981402537382	243.917561235032	1266.418807421256	1140.384910628002	719.613760158114	1439.381686040492	1253.715671889856	580.982771079055	
21	5.564285714286	850.889901343309	1015.042334749629	497.688828006325	1035.506741916367	1425.643023736795	297.130535723991	1154.976354692897	1347.954949765674	442.530971028049	1102.543678617632	1433.118817781592	621.600519688574	1058.966393287039	1484.227625981445	450.237209776664	1075.196346458884	932.329957967380	599.626933818053	1050.246784868146	947.953822934812	325.374846574405	1058.251462938304	718.276854935398	575.113668810051	948.265674349002	631.590063087294	637.455518529374	1003.192139438853	562.552715363434	556.743924037624	983.270963762998	479.185416082960	560.822633233442	1123.528358552565	778.883105142749	364.512140677789	1088.033955718974	648.540801688634	280.099425696184	1190.046557549775	593.631323239480	346.279574855125	1220.340094452855	527.936021101443	341.770521184110	1204.287804931945	453.189311623067	330.804489319378	1140.814171898257	322.986306891612	277.376171717017	1227.120744117472	224.422970735321	334.241109291279	942.476614767453	398.376175498404	566.204892161226	860.453520330544	304.257982679781	629.174607189263	887.754137334575	205.563443198510	562.288151800848	736.346944370375	48.104483651664	534.065677054804	910.139006647452	96.757395737763	565.036441632429	821.328302183086	38.898813315962	605.410304905303	1029.380894268762	39.057184198403	590.147778548767	1145.401390811134	44.293821499836	368.129190606236	1222.962515718396	49.809338405569	291.713056303922	1290.867315857769	128.076050091429	315.909439892181	1426.379608657933	100.368556965310	296.977823644105	854.353238953126	1122.802756989885	216.058855131276	800.162535749187	867.162988218412	243.073448718235	1268.849010328359	1141.457903832201	715.484650063516	1437.797804496349	1259.850341069307	576.619979336141	
22	5.575500000000	852.355609879755	1012.906475771039	495.163970999842	1034.623330140907	1424.402502389240	295.440745150863	1154.463935583279	1347.533382437494	440.975489788516	1100.911207903365	1432.078994559346	620.002937260097	1057.333866747451	1482.937559901958	448.708204583575	1076.553743155195	930.964142786178	598.158594158587	1052.667879857511	946.117375166127	323.939667153208	1058.259777747121	716.511987962538	574.133964508934	947.200793872066	630.588005591652	636.287273086979	1001.771328712504	561.003541437601	555.826932266844	981.003160577005	477.294960961245	559.822425792204	1125.220993061658	775.053816440979	363.203193752430	1086.780085739658	644.682949951783	280.100140542843	1188.845712232496	589.244345729781	345.565774846176	1217.735152077180	523.169946328482	341.659093533727	1201.609453992427	448.664009244819	330.692570530848	1137.118028374339	318.482564375028	278.917883365386	1223.616518240490	220.060700273575	335.592649968319	939.046696172057	396.988677349796	565.350994259014	855.818603222798	304.046340965825	628.694673404857	881.490851329098	204.924501285313	561.953376274451	728.452182025032	48.529076932200	534.242131401241	902.291772395561	96.715505203669	565.011178065092	813.457703139488	39.090618750707	605.628349501219	1021.473507369216	38.914903139824	590.182580203952	1140.745827130468	42.021737727697	371.184988965118	1217.363958187378	46.417144066051	293.699568175076	1286.838492000852	123.072663037229	317.317723017422	1421.586043553671	92.905604611968	296.649515714936	854.011407348821	1121.495629294122	214.482156991112	800.540128744160	865.688160403303	241.902008373698	1270.417941362894	1141.934974567703	711.605327236140	1435.837497007347	1264.641163018286	572.622573156144	
23	5.586714285714	853.797607605387	1010.663610343000	492.529500023223	1033.885600663329	1423.039496931580	293.561246941803	1154.009042243624	1347.064928702654	439.361440855289	1099.188656557365	1430.992755411386	618.351429803797	1055.786486823828	1481.622786648920	446.972624095668	1077.953163124747	929.555704894269	596.648756517209	1055.095807329180	944.292421818945	322.511279049005	1058.907013530287	714.770488864529	573.072298024086	946.925915563182	629.414350866419	634.935189910146	1001.306449300241	559.336305671351	554.753570762512	979.608440768498	475.186846217878	558.564078227230	1127.084384587902	771.267019780973	361.692241272929	1085.611399433737	641.015075762038	280.061034557900	1187.889183563773	585.147612255796	344.830297819056	1215.283373733070	518.557632970976	341.600842283970	1198.967973806361	444.262730037160	330.584532030434	1133.237801500002	314.306596364415	280.169801623034	1219.465478893725	215.750643307563	336.835370018126	936.383418233958	395.376639971915	564.281275327797	851.833427133066	303.807579819972	628.082219185759	875.573132893465	204.238786737421	561.530076821885	720.601697740144	49.194412579202	534.463228573757	894.547088724737	96.715995324774	564.993716505568	805.632548657158	39.393763145388	605.873794319510	1013.599751801165	38.744058287200	590.230041771702	1134.630185878892	40.197291849707	373.766381721303	1210.470231284813	43.290751091490	295.350077389131	1281.819229454792	117.954362341794	318.712211792231	1415.715979048730	84.725426271622	296.516522863683	854.445886940165	1119.582182518443	212.647279028429	801.829051448508	863.596323275660	240.383925315963	1271.121028428697	1141.772606068364	708.031186064419	1433.558658565719	1268.067452657778	569.015401729330	
